<?xml version="1.0" encoding="UTF-8"?>
<!DOCTYPE svg PUBLIC "-//W3C//DTD SVG 1.1//EN" "http://www.w3.org/Graphics/SVG/1.1/DTD/svg11.dtd">
<!-- Creator: CorelDRAW -->
<svg xmlns="http://www.w3.org/2000/svg" xml:space="preserve" width="1.70666in" height="1.70666in" version="1.1" style="shape-rendering:geometricPrecision; text-rendering:geometricPrecision; image-rendering:optimizeQuality; fill-rule:evenodd; clip-rule:evenodd"
viewBox="0 0 1707 1707"
 xmlns:xlink="http://www.w3.org/1999/xlink">
 <defs>
  <style type="text/css">
   <![CDATA[
    .fil0 {fill:black}
   ]]>
  </style>
 </defs>
 <g id="Layer_x0020_1">
  <metadata id="CorelCorpID_0Corel-Layer"/>
  <g id="_408898248">
   <g>
    <g>
     <path class="fil0" d="M501 1707c-21,0 -37,-5 -52,-16 -52,-41 -52,-135 -52,-256 0,-161 0,-344 -125,-409 -1,-2 -3,-2 -4,-3 -6,-7 -154,-135 -72,-245 0,-1 1,-1 1,-2 2,-2 50,-52 106,-73 14,-5 22,-14 28,-27 11,-28 0,-74 -28,-131 -54,-105 -91,-161 -91,-161 0,-1 -1,-1 -1,-3 -15,-28 -144,-280 -151,-355 0,-7 1,-14 7,-18 4,-6 11,-9 18,-9l475 0c12,0 22,9 23,21 50,333 116,706 138,739 89,125 122,300 90,483 -33,195 -133,365 -268,457 -3,1 -6,3 -8,4 -11,3 -24,4 -34,4zm-202 -723c148,79 148,285 148,451 0,95 0,193 32,218 3,3 14,11 40,4 121,-84 213,-243 243,-422 30,-169 0,-332 -82,-446 -34,-48 -113,-554 -141,-740l-425 0c21,70 92,217 140,310 6,8 42,64 93,165 36,71 46,128 29,170 -9,25 -29,44 -55,55 -43,17 -81,53 -88,60 -48,68 50,161 66,175z"/>
    </g>
    <g>
     <path class="fil0" d="M297 505c-8,0 -16,-4 -21,-13 -7,-11 -2,-26 9,-33l307 -176c11,-7 26,-3 33,8 7,11 3,26 -8,33l-307 178c-4,1 -9,3 -13,3zm-60 -103c-8,0 -16,-4 -20,-12 -7,-12 -3,-27 8,-34l344 -200c11,-7 27,-3 34,9 7,11 2,26 -9,33l-344 201c-4,2 -8,3 -13,3z"/>
    </g>
    <g>
     <path class="fil0" d="M1205 1707c-11,0 -22,-1 -33,-4 -3,-1 -6,-1 -8,-4 -132,-92 -232,-261 -267,-455 -32,-184 0,-360 90,-485 21,-33 86,-407 136,-739 2,-12 13,-21 24,-21l475 0c7,0 14,3 18,9 4,5 7,11 7,18 -6,75 -136,327 -151,355 0,2 -2,2 -2,3 0,0 -36,56 -90,161 -29,57 -39,103 -28,131 4,12 14,20 28,26 57,22 104,71 105,72 0,0 2,2 2,2 83,109 -67,238 -72,244 -2,1 -3,3 -5,3 -126,64 -124,248 -124,409 0,121 0,216 -50,256 -17,14 -34,19 -55,19zm-16 -51c26,6 36,-1 39,-4 32,-25 32,-122 32,-217 0,-166 0,-373 148,-451 15,-14 114,-107 64,-175 -6,-7 -44,-43 -88,-60 -26,-11 -45,-29 -55,-55 -15,-42 -6,-99 31,-170 51,-101 86,-157 91,-165 49,-94 120,-240 140,-310l-423 0c-28,186 -108,692 -142,740 -82,114 -111,278 -82,449 32,176 124,333 245,418z"/>
    </g>
    <g>
     <path class="fil0" d="M1411 505c-4,0 -8,-2 -13,-3l-307 -178c-11,-7 -15,-22 -8,-33 7,-11 21,-15 33,-8l307 176c11,7 16,22 9,33 -4,9 -13,13 -21,13zm58 -103c-4,0 -8,-1 -12,-3l-346 -200c-11,-7 -15,-22 -8,-33 7,-11 22,-15 33,-8l346 200c11,7 15,22 8,33 -4,7 -12,11 -21,11z"/>
    </g>
   </g>
  </g>
 </g>
</svg>
